<?xml version="1.0" encoding="UTF-8"?>
<!DOCTYPE svg PUBLIC "-//W3C//DTD SVG 1.1//EN" "http://www.w3.org/Graphics/SVG/1.1/DTD/svg11.dtd"><svg version="1.1" viewBox="0 0 29700 21000" preserveAspectRatio="xMidYMid" fill-rule="evenodd" xmlns="http://www.w3.org/2000/svg" xmlns:xlink="http://www.w3.org/1999/xlink"><g visibility="visible" id="Default"><desc>Master slide</desc><g style="stroke:none;fill:none"><rect x="986" y="986" width="27730" height="19030"/></g></g><g visibility="visible" id="page1"><desc>Slide</desc><g><desc>Drawing</desc><g><g><defs><clipPath id="clip1"><path d="M 9825,3300 L 17275,3300 17605,3320 17932,3379 18255,3474 18569,3603 18873,3762 19165,3950 19440,4164 19698,4401 19935,4659 20149,4935 20337,5226 20497,5530 20626,5845 20721,6167 20780,6495 20800,6825 20800,14275 20780,14605 20721,14932 20626,15255 20497,15569 20337,15873 20149,16165 19935,16440 19698,16698 19440,16935 19165,17149 18873,17337 18569,17497 18255,17626 17932,17721 17605,17780 17275,17800 9825,17800 9495,17780 9167,17721 8845,17626 8530,17497 8226,17337 7935,17149 7659,16935 7401,16698 7164,16440 6950,16165 6762,15873 6603,15569 6474,15255 6379,14932 6320,14605 6300,14275 6300,6825 6320,6495 6379,6167 6474,5845 6603,5530 6762,5226 6950,4935 7164,4659 7401,4401 7659,4164 7935,3950 8226,3762 8530,3603 8845,3474 9167,3379 9495,3320 9825,3300 Z M 6300,3300 L 6300,3300 Z M 20801,17801 L 20801,17801 Z"/></clipPath></defs><g style="clip-path:URL(#clip1)"><g style="stroke:none;fill:rgb(0,0,0)"><path d="M 20802,17828 L 6271,17802 6271,17802 20802,17828 Z"/><path d="M 20802,17828 L 6271,17802 6297,3270 20828,3296 Z"/></g></g></g><g style="stroke:none;fill:rgb(0,0,0)"><path d="M 9825,3600 C 9628,3600 9431,3625 9237,3671 L 9167,3379 9098,3087 C 9338,3030 9581,3000 9825,3000 L 9825,3300 9825,3600 Z"/><path d="M 9237,3671 C 9039,3718 8845,3787 8657,3875 L 8530,3603 8404,3331 C 8629,3226 8861,3144 9098,3087 L 9167,3379 9237,3671 Z"/><path d="M 8657,3875 C 8275,4053 7919,4308 7614,4614 L 7401,4401 7189,4189 C 7545,3834 7959,3538 8404,3331 L 8530,3603 8657,3875 Z"/><path d="M 7614,4614 C 7308,4919 7053,5275 6875,5657 L 6603,5530 6331,5404 C 6538,4959 6834,4545 7189,4189 L 7401,4401 7614,4614 Z"/><path d="M 6875,5657 C 6787,5845 6718,6039 6671,6237 L 6379,6167 6087,6098 C 6144,5861 6226,5629 6331,5404 L 6603,5530 6875,5657 Z"/><path d="M 6671,6237 C 6625,6431 6600,6628 6600,6825 L 6300,6825 6000,6825 C 6000,6581 6030,6338 6087,6098 L 6379,6167 6671,6237 Z"/><path d="M 6600,6825 L 6600,14275 6300,14275 6000,14275 6000,6825 6300,6825 6600,6825 Z"/><path d="M 6600,14275 C 6600,14472 6625,14669 6671,14863 L 6379,14932 6087,15002 C 6030,14762 6000,14519 6000,14275 L 6300,14275 6600,14275 Z"/><path d="M 6671,14863 C 6718,15060 6787,15254 6875,15442 L 6603,15569 6331,15696 C 6226,15471 6144,15238 6087,15002 L 6379,14932 6671,14863 Z"/><path d="M 6875,15442 C 7053,15824 7308,16181 7614,16486 L 7401,16698 7189,16910 C 6834,16555 6538,16140 6331,15696 L 6603,15569 6875,15442 Z"/><path d="M 7614,16486 C 7919,16792 8275,17047 8657,17225 L 8530,17497 8404,17769 C 7959,17562 7545,17266 7189,16910 L 7401,16698 7614,16486 Z"/><path d="M 8657,17225 C 8845,17313 9039,17382 9237,17429 L 9167,17721 9098,18013 C 8861,17956 8629,17874 8404,17769 L 8530,17497 8657,17225 Z"/><path d="M 9237,17429 C 9431,17475 9628,17500 9825,17500 L 9825,17800 9825,18100 C 9581,18100 9338,18070 9098,18013 L 9167,17721 9237,17429 Z"/><path d="M 9825,17500 L 17275,17500 17275,17800 17275,18100 9825,18100 9825,17800 9825,17500 Z"/><path d="M 17275,17500 C 17472,17500 17669,17475 17863,17429 L 17932,17721 18002,18013 C 17762,18070 17519,18100 17275,18100 L 17275,17800 17275,17500 Z"/><path d="M 17863,17429 C 18060,17382 18254,17313 18442,17225 L 18569,17497 18696,17769 C 18471,17874 18238,17956 18002,18013 L 17932,17721 17863,17429 Z"/><path d="M 18442,17225 C 18824,17047 19180,16792 19486,16486 L 19698,16698 19910,16910 C 19555,17266 19140,17562 18696,17769 L 18569,17497 18442,17225 Z"/><path d="M 19486,16486 C 19792,16180 20047,15824 20225,15442 L 20497,15569 20769,15696 C 20562,16140 20266,16555 19910,16910 L 19698,16698 19486,16486 Z"/><path d="M 20225,15442 C 20313,15254 20382,15060 20429,14863 L 20721,14932 21013,15002 C 20956,15238 20874,15471 20769,15696 L 20497,15569 20225,15442 Z"/><path d="M 20429,14863 C 20475,14669 20500,14472 20500,14275 L 20800,14275 21100,14275 C 21100,14519 21070,14762 21013,15002 L 20721,14932 20429,14863 Z"/><path d="M 20500,14275 L 20500,6825 20800,6825 21100,6825 21100,14275 20800,14275 20500,14275 Z"/><path d="M 20500,6825 C 20500,6628 20475,6431 20429,6237 L 20721,6167 21013,6098 C 21070,6338 21100,6581 21100,6825 L 20800,6825 20500,6825 Z"/><path d="M 20429,6237 C 20382,6039 20313,5845 20225,5657 L 20497,5530 20769,5404 C 20874,5629 20956,5861 21013,6098 L 20721,6167 20429,6237 Z"/><path d="M 20225,5657 C 20047,5275 19792,4919 19486,4614 L 19698,4401 19910,4189 C 20266,4545 20562,4959 20769,5404 L 20497,5530 20225,5657 Z"/><path d="M 19486,4614 C 19181,4308 18824,4053 18442,3875 L 18569,3603 18696,3331 C 19140,3538 19555,3834 19910,4189 L 19698,4401 19486,4614 Z"/><path d="M 18442,3875 C 18254,3787 18060,3718 17863,3671 L 17932,3379 18002,3087 C 18238,3144 18471,3226 18696,3331 L 18569,3603 18442,3875 Z"/><path d="M 17863,3671 C 17669,3625 17472,3600 17275,3600 L 17275,3300 17275,3000 C 17519,3000 17762,3030 18002,3087 L 17932,3379 17863,3671 Z"/><path d="M 17275,3600 L 9825,3600 9825,3300 9825,3000 17275,3000 17275,3300 17275,3600 Z"/><path d="M 6300,3300 L 6300,3300 6300,3300 6300,3300 6300,3300 6300,3300 6300,3300 Z"/><path d="M 20801,17801 L 20801,17801 20801,17801 20801,17801 20801,17801 20801,17801 20801,17801 Z"/></g><g><defs><clipPath id="clip2"><path d="M 9025,2500 L 16475,2500 16805,2520 17132,2579 17455,2674 17769,2803 18073,2962 18365,3150 18640,3364 18898,3601 19135,3859 19349,4135 19537,4426 19697,4730 19826,5045 19921,5367 19980,5695 20000,6025 20000,13475 19980,13805 19921,14132 19826,14455 19697,14769 19537,15073 19349,15365 19135,15640 18898,15898 18640,16135 18365,16349 18073,16537 17769,16697 17455,16826 17132,16921 16805,16980 16475,17000 9025,17000 8695,16980 8367,16921 8045,16826 7730,16697 7426,16537 7135,16349 6859,16135 6601,15898 6364,15640 6150,15365 5962,15073 5803,14769 5674,14455 5579,14132 5520,13805 5500,13475 5500,6025 5520,5695 5579,5367 5674,5045 5803,4730 5962,4426 6150,4135 6364,3859 6601,3601 6859,3364 7135,3150 7426,2962 7730,2803 8045,2674 8367,2579 8695,2520 9025,2500 Z M 5500,2500 L 5500,2500 Z M 20001,17001 L 20001,17001 Z"/></clipPath></defs><g style="clip-path:URL(#clip2)"><g style="stroke:none;fill:rgb(0,69,134)"><path d="M 20002,17028 L 5471,17002 5471,17002 20002,17028 Z"/><path d="M 20002,17028 L 5471,17002 5472,16894 20002,16920 Z"/><path d="M 20002,16920 L 5472,16894 5472,16786 20003,16812 Z"/></g><g style="stroke:none;fill:rgb(0,68,133)"><path d="M 20003,16812 L 5472,16786 5472,16677 20003,16703 Z"/></g><g style="stroke:none;fill:rgb(0,68,132)"><path d="M 20003,16703 L 5472,16677 5472,16569 20003,16595 Z"/></g><g style="stroke:none;fill:rgb(0,67,131)"><path d="M 20003,16595 L 5472,16569 5472,16460 20003,16486 Z"/></g><g style="stroke:none;fill:rgb(0,67,130)"><path d="M 20003,16486 L 5472,16460 5472,16352 20003,16378 Z"/></g><g style="stroke:none;fill:rgb(0,66,129)"><path d="M 20003,16378 L 5472,16352 5473,16243 20004,16269 Z"/></g><g style="stroke:none;fill:rgb(0,66,128)"><path d="M 20004,16269 L 5473,16243 5473,16135 20004,16161 Z"/></g><g style="stroke:none;fill:rgb(0,65,127)"><path d="M 20004,16161 L 5473,16135 5473,16026 20004,16052 Z"/></g><g style="stroke:none;fill:rgb(0,65,126)"><path d="M 20004,16052 L 5473,16026 5473,15918 20004,15944 Z"/></g><g style="stroke:none;fill:rgb(0,64,125)"><path d="M 20004,15944 L 5473,15918 5473,15810 20004,15836 Z"/></g><g style="stroke:none;fill:rgb(0,64,124)"><path d="M 20004,15836 L 5473,15810 5474,15701 20005,15727 Z"/></g><g style="stroke:none;fill:rgb(0,63,123)"><path d="M 20005,15727 L 5474,15701 5474,15593 20005,15619 Z"/></g><g style="stroke:none;fill:rgb(0,63,122)"><path d="M 20005,15619 L 5474,15593 5474,15484 20005,15510 Z"/></g><g style="stroke:none;fill:rgb(0,62,121)"><path d="M 20005,15510 L 5474,15484 5474,15376 20005,15402 Z"/></g><g style="stroke:none;fill:rgb(0,62,120)"><path d="M 20005,15402 L 5474,15376 5474,15267 20005,15293 Z"/></g><g style="stroke:none;fill:rgb(0,61,119)"><path d="M 20005,15293 L 5474,15267 5475,15159 20006,15185 Z"/></g><g style="stroke:none;fill:rgb(0,61,118)"><path d="M 20006,15185 L 5475,15159 5475,15050 20006,15076 Z"/></g><g style="stroke:none;fill:rgb(0,60,117)"><path d="M 20006,15076 L 5475,15050 5475,14942 20006,14968 Z"/></g><g style="stroke:none;fill:rgb(0,60,116)"><path d="M 20006,14968 L 5475,14942 5475,14834 20006,14860 Z"/></g><g style="stroke:none;fill:rgb(0,59,115)"><path d="M 20006,14860 L 5475,14834 5475,14725 20006,14751 Z"/></g><g style="stroke:none;fill:rgb(0,59,114)"><path d="M 20006,14751 L 5475,14725 5475,14617 20006,14643 Z"/></g><g style="stroke:none;fill:rgb(0,58,113)"><path d="M 20006,14643 L 5475,14617 5476,14508 20007,14534 Z"/></g><g style="stroke:none;fill:rgb(0,58,112)"><path d="M 20007,14534 L 5476,14508 5476,14400 20007,14426 Z"/></g><g style="stroke:none;fill:rgb(0,57,111)"><path d="M 20007,14426 L 5476,14400 5476,14291 20007,14317 Z"/></g><g style="stroke:none;fill:rgb(0,57,110)"><path d="M 20007,14317 L 5476,14291 5476,14183 20007,14209 Z"/></g><g style="stroke:none;fill:rgb(0,56,109)"><path d="M 20007,14209 L 5476,14183 5476,14074 20007,14100 Z"/></g><g style="stroke:none;fill:rgb(0,56,108)"><path d="M 20007,14100 L 5476,14074 5477,13966 20008,13992 Z"/></g><g style="stroke:none;fill:rgb(0,55,107)"><path d="M 20008,13992 L 5477,13966 5477,13858 20008,13884 Z"/></g><g style="stroke:none;fill:rgb(0,55,106)"><path d="M 20008,13884 L 5477,13858 5477,13749 20008,13775 Z"/></g><g style="stroke:none;fill:rgb(0,54,105)"><path d="M 20008,13775 L 5477,13749 5477,13641 20008,13667 Z"/></g><g style="stroke:none;fill:rgb(0,54,104)"><path d="M 20008,13667 L 5477,13641 5477,13532 20008,13558 Z"/></g><g style="stroke:none;fill:rgb(0,53,103)"><path d="M 20008,13558 L 5477,13532 5478,13424 20009,13450 Z"/></g><g style="stroke:none;fill:rgb(0,53,102)"><path d="M 20009,13450 L 5478,13424 5478,13315 20009,13341 Z"/></g><g style="stroke:none;fill:rgb(0,52,101)"><path d="M 20009,13341 L 5478,13315 5478,13207 20009,13233 Z"/></g><g style="stroke:none;fill:rgb(0,52,100)"><path d="M 20009,13233 L 5478,13207 5478,13098 20009,13124 Z"/></g><g style="stroke:none;fill:rgb(0,51,99)"><path d="M 20009,13124 L 5478,13098 5478,12990 20009,13016 Z"/></g><g style="stroke:none;fill:rgb(0,51,98)"><path d="M 20009,13016 L 5478,12990 5479,12881 20010,12907 Z"/></g><g style="stroke:none;fill:rgb(0,50,97)"><path d="M 20010,12907 L 5479,12881 5479,12773 20010,12799 Z"/></g><g style="stroke:none;fill:rgb(0,50,96)"><path d="M 20010,12799 L 5479,12773 5479,12665 20010,12691 Z"/></g><g style="stroke:none;fill:rgb(0,49,95)"><path d="M 20010,12691 L 5479,12665 5479,12556 20010,12582 Z"/></g><g style="stroke:none;fill:rgb(0,49,94)"><path d="M 20010,12582 L 5479,12556 5479,12448 20010,12474 Z"/></g><g style="stroke:none;fill:rgb(0,48,93)"><path d="M 20010,12474 L 5479,12448 5479,12339 20010,12365 Z"/></g><g style="stroke:none;fill:rgb(0,48,92)"><path d="M 20010,12365 L 5479,12339 5480,12231 20011,12257 Z"/></g><g style="stroke:none;fill:rgb(0,47,91)"><path d="M 20011,12257 L 5480,12231 5480,12122 20011,12148 Z"/></g><g style="stroke:none;fill:rgb(0,46,90)"><path d="M 20011,12148 L 5480,12122 5480,12014 20011,12040 Z"/></g><g style="stroke:none;fill:rgb(0,46,89)"><path d="M 20011,12040 L 5480,12014 5480,11905 20011,11931 Z"/></g><g style="stroke:none;fill:rgb(0,45,88)"><path d="M 20011,11931 L 5480,11905 5480,11797 20011,11823 Z"/></g><g style="stroke:none;fill:rgb(0,45,87)"><path d="M 20011,11823 L 5480,11797 5481,11689 20012,11715 Z"/></g><g style="stroke:none;fill:rgb(0,44,86)"><path d="M 20012,11715 L 5481,11689 5481,11580 20012,11606 Z"/></g><g style="stroke:none;fill:rgb(0,44,85)"><path d="M 20012,11606 L 5481,11580 5481,11472 20012,11498 Z"/></g><g style="stroke:none;fill:rgb(0,43,84)"><path d="M 20012,11498 L 5481,11472 5481,11363 20012,11389 Z"/></g><g style="stroke:none;fill:rgb(0,43,83)"><path d="M 20012,11389 L 5481,11363 5481,11255 20012,11281 Z"/></g><g style="stroke:none;fill:rgb(0,42,82)"><path d="M 20012,11281 L 5481,11255 5482,11146 20013,11172 Z"/></g><g style="stroke:none;fill:rgb(0,42,81)"><path d="M 20013,11172 L 5482,11146 5482,11038 20013,11064 Z"/></g><g style="stroke:none;fill:rgb(0,41,80)"><path d="M 20013,11064 L 5482,11038 5482,10929 20013,10955 Z"/></g><g style="stroke:none;fill:rgb(0,41,79)"><path d="M 20013,10955 L 5482,10929 5482,10821 20013,10847 Z"/></g><g style="stroke:none;fill:rgb(0,40,78)"><path d="M 20013,10847 L 5482,10821 5482,10713 20013,10739 Z"/></g><g style="stroke:none;fill:rgb(0,40,77)"><path d="M 20013,10739 L 5482,10713 5482,10604 20013,10630 Z"/></g><g style="stroke:none;fill:rgb(0,39,76)"><path d="M 20013,10630 L 5482,10604 5483,10496 20014,10522 Z"/></g><g style="stroke:none;fill:rgb(0,39,75)"><path d="M 20014,10522 L 5483,10496 5483,10387 20014,10413 Z"/></g><g style="stroke:none;fill:rgb(0,38,74)"><path d="M 20014,10413 L 5483,10387 5483,10279 20014,10305 Z"/></g><g style="stroke:none;fill:rgb(0,38,73)"><path d="M 20014,10305 L 5483,10279 5483,10170 20014,10196 Z"/></g><g style="stroke:none;fill:rgb(0,37,72)"><path d="M 20014,10196 L 5483,10170 5483,10062 20014,10088 Z"/></g><g style="stroke:none;fill:rgb(0,37,71)"><path d="M 20014,10088 L 5483,10062 5484,9953 20015,9979 Z"/></g><g style="stroke:none;fill:rgb(0,36,70)"><path d="M 20015,9979 L 5484,9953 5484,9845 20015,9871 Z"/></g><g style="stroke:none;fill:rgb(0,36,69)"><path d="M 20015,9871 L 5484,9845 5484,9736 20015,9762 Z"/></g><g style="stroke:none;fill:rgb(0,35,68)"><path d="M 20015,9762 L 5484,9736 5484,9628 20015,9654 Z"/></g><g style="stroke:none;fill:rgb(0,35,67)"><path d="M 20015,9654 L 5484,9628 5484,9520 20015,9546 Z"/></g><g style="stroke:none;fill:rgb(0,34,66)"><path d="M 20015,9546 L 5484,9520 5485,9411 20016,9437 Z"/></g><g style="stroke:none;fill:rgb(0,34,65)"><path d="M 20016,9437 L 5485,9411 5485,9303 20016,9329 Z"/></g><g style="stroke:none;fill:rgb(0,33,64)"><path d="M 20016,9329 L 5485,9303 5485,9194 20016,9220 Z"/></g><g style="stroke:none;fill:rgb(0,33,63)"><path d="M 20016,9220 L 5485,9194 5485,9086 20016,9112 Z"/></g><g style="stroke:none;fill:rgb(0,32,62)"><path d="M 20016,9112 L 5485,9086 5485,8977 20016,9003 Z"/></g><g style="stroke:none;fill:rgb(0,32,61)"><path d="M 20016,9003 L 5485,8977 5486,8869 20017,8895 Z"/></g><g style="stroke:none;fill:rgb(0,31,60)"><path d="M 20017,8895 L 5486,8869 5486,8760 20017,8786 Z"/></g><g style="stroke:none;fill:rgb(0,31,59)"><path d="M 20017,8786 L 5486,8760 5486,8652 20017,8678 Z"/></g><g style="stroke:none;fill:rgb(0,30,58)"><path d="M 20017,8678 L 5486,8652 5486,8544 20017,8570 Z"/></g><g style="stroke:none;fill:rgb(0,30,57)"><path d="M 20017,8570 L 5486,8544 5486,8435 20017,8461 Z"/></g><g style="stroke:none;fill:rgb(0,29,56)"><path d="M 20017,8461 L 5486,8435 5486,8327 20017,8353 Z"/></g><g style="stroke:none;fill:rgb(0,29,55)"><path d="M 20017,8353 L 5486,8327 5487,8218 20018,8244 Z"/></g><g style="stroke:none;fill:rgb(0,28,54)"><path d="M 20018,8244 L 5487,8218 5487,8110 20018,8136 Z"/></g><g style="stroke:none;fill:rgb(0,28,53)"><path d="M 20018,8136 L 5487,8110 5487,8001 20018,8027 Z"/></g><g style="stroke:none;fill:rgb(0,27,52)"><path d="M 20018,8027 L 5487,8001 5487,7893 20018,7919 Z"/></g><g style="stroke:none;fill:rgb(0,27,51)"><path d="M 20018,7919 L 5487,7893 5487,7784 20018,7810 Z"/></g><g style="stroke:none;fill:rgb(0,26,50)"><path d="M 20018,7810 L 5487,7784 5488,7676 20019,7702 Z"/></g><g style="stroke:none;fill:rgb(0,26,49)"><path d="M 20019,7702 L 5488,7676 5488,7568 20019,7594 Z"/></g><g style="stroke:none;fill:rgb(0,25,48)"><path d="M 20019,7594 L 5488,7568 5488,7459 20019,7485 Z"/></g><g style="stroke:none;fill:rgb(0,25,47)"><path d="M 20019,7485 L 5488,7459 5488,7351 20019,7377 Z"/></g><g style="stroke:none;fill:rgb(0,24,46)"><path d="M 20019,7377 L 5488,7351 5488,7242 20019,7268 Z"/></g><g style="stroke:none;fill:rgb(0,23,45)"><path d="M 20019,7268 L 5488,7242 5489,7134 20020,7160 Z"/></g><g style="stroke:none;fill:rgb(0,23,44)"><path d="M 20020,7160 L 5489,7134 5489,7025 20020,7051 Z"/></g><g style="stroke:none;fill:rgb(0,22,43)"><path d="M 20020,7051 L 5489,7025 5489,6917 20020,6943 Z"/></g><g style="stroke:none;fill:rgb(0,22,42)"><path d="M 20020,6943 L 5489,6917 5489,6808 20020,6834 Z"/></g><g style="stroke:none;fill:rgb(0,21,41)"><path d="M 20020,6834 L 5489,6808 5489,6700 20020,6726 Z"/></g><g style="stroke:none;fill:rgb(0,21,40)"><path d="M 20020,6726 L 5489,6700 5490,6592 20020,6618 Z"/></g><g style="stroke:none;fill:rgb(0,20,39)"><path d="M 20020,6618 L 5490,6592 5490,6483 20021,6509 Z"/></g><g style="stroke:none;fill:rgb(0,20,38)"><path d="M 20021,6509 L 5490,6483 5490,6375 20021,6401 Z"/></g><g style="stroke:none;fill:rgb(0,19,37)"><path d="M 20021,6401 L 5490,6375 5490,6266 20021,6292 Z"/></g><g style="stroke:none;fill:rgb(0,19,36)"><path d="M 20021,6292 L 5490,6266 5490,6158 20021,6184 Z"/></g><g style="stroke:none;fill:rgb(0,18,35)"><path d="M 20021,6184 L 5490,6158 5490,6049 20021,6075 Z"/></g><g style="stroke:none;fill:rgb(0,18,34)"><path d="M 20021,6075 L 5490,6049 5491,5941 20022,5967 Z"/></g><g style="stroke:none;fill:rgb(0,17,33)"><path d="M 20022,5967 L 5491,5941 5491,5832 20022,5858 Z"/></g><g style="stroke:none;fill:rgb(0,17,32)"><path d="M 20022,5858 L 5491,5832 5491,5724 20022,5750 Z"/></g><g style="stroke:none;fill:rgb(0,16,31)"><path d="M 20022,5750 L 5491,5724 5491,5615 20022,5641 Z"/></g><g style="stroke:none;fill:rgb(0,16,30)"><path d="M 20022,5641 L 5491,5615 5491,5507 20022,5533 Z"/></g><g style="stroke:none;fill:rgb(0,15,29)"><path d="M 20022,5533 L 5491,5507 5492,5399 20023,5425 Z"/></g><g style="stroke:none;fill:rgb(0,15,28)"><path d="M 20023,5425 L 5492,5399 5492,5290 20023,5316 Z"/></g><g style="stroke:none;fill:rgb(0,14,27)"><path d="M 20023,5316 L 5492,5290 5492,5182 20023,5208 Z"/></g><g style="stroke:none;fill:rgb(0,14,26)"><path d="M 20023,5208 L 5492,5182 5492,5073 20023,5099 Z"/></g><g style="stroke:none;fill:rgb(0,13,25)"><path d="M 20023,5099 L 5492,5073 5492,4965 20023,4991 Z"/></g><g style="stroke:none;fill:rgb(0,13,24)"><path d="M 20023,4991 L 5492,4965 5493,4856 20024,4882 Z"/></g><g style="stroke:none;fill:rgb(0,12,23)"><path d="M 20024,4882 L 5493,4856 5493,4748 20024,4774 Z"/></g><g style="stroke:none;fill:rgb(0,12,22)"><path d="M 20024,4774 L 5493,4748 5493,4639 20024,4665 Z"/></g><g style="stroke:none;fill:rgb(0,11,21)"><path d="M 20024,4665 L 5493,4639 5493,4531 20024,4557 Z"/></g><g style="stroke:none;fill:rgb(0,11,20)"><path d="M 20024,4557 L 5493,4531 5493,4423 20024,4449 Z"/></g><g style="stroke:none;fill:rgb(0,10,19)"><path d="M 20024,4449 L 5493,4423 5493,4314 20024,4340 Z"/></g><g style="stroke:none;fill:rgb(0,10,18)"><path d="M 20024,4340 L 5493,4314 5494,4206 20025,4232 Z"/></g><g style="stroke:none;fill:rgb(0,9,17)"><path d="M 20025,4232 L 5494,4206 5494,4097 20025,4123 Z"/></g><g style="stroke:none;fill:rgb(0,9,16)"><path d="M 20025,4123 L 5494,4097 5494,3989 20025,4015 Z"/></g><g style="stroke:none;fill:rgb(0,8,15)"><path d="M 20025,4015 L 5494,3989 5494,3880 20025,3906 Z"/></g><g style="stroke:none;fill:rgb(0,8,14)"><path d="M 20025,3906 L 5494,3880 5494,3772 20025,3798 Z"/></g><g style="stroke:none;fill:rgb(0,7,13)"><path d="M 20025,3798 L 5494,3772 5495,3663 20026,3689 Z"/></g><g style="stroke:none;fill:rgb(0,7,12)"><path d="M 20026,3689 L 5495,3663 5495,3555 20026,3581 Z"/></g><g style="stroke:none;fill:rgb(0,6,11)"><path d="M 20026,3581 L 5495,3555 5495,3447 20026,3473 Z"/></g><g style="stroke:none;fill:rgb(0,6,10)"><path d="M 20026,3473 L 5495,3447 5495,3338 20026,3364 Z"/></g><g style="stroke:none;fill:rgb(0,5,9)"><path d="M 20026,3364 L 5495,3338 5495,3230 20026,3256 Z"/></g><g style="stroke:none;fill:rgb(0,5,8)"><path d="M 20026,3256 L 5495,3230 5496,3121 20027,3147 Z"/></g><g style="stroke:none;fill:rgb(0,4,7)"><path d="M 20027,3147 L 5496,3121 5496,3013 20027,3039 Z"/></g><g style="stroke:none;fill:rgb(0,4,6)"><path d="M 20027,3039 L 5496,3013 5496,2904 20027,2930 Z"/></g><g style="stroke:none;fill:rgb(0,3,5)"><path d="M 20027,2930 L 5496,2904 5496,2796 20027,2822 Z"/></g><g style="stroke:none;fill:rgb(0,3,4)"><path d="M 20027,2822 L 5496,2796 5496,2687 20027,2713 Z"/></g><g style="stroke:none;fill:rgb(0,2,3)"><path d="M 20027,2713 L 5496,2687 5497,2579 20027,2605 Z"/></g><g style="stroke:none;fill:rgb(0,2,2)"><path d="M 20027,2605 L 5497,2579 5497,2471 20028,2497 Z"/></g></g></g><g style="stroke:none;fill:rgb(128,128,128)"><path d="M 9025,2800 C 8828,2800 8631,2825 8437,2871 L 8367,2579 8298,2287 C 8538,2230 8781,2200 9025,2200 L 9025,2500 9025,2800 Z"/><path d="M 8437,2871 C 8239,2918 8045,2987 7857,3075 L 7730,2803 7604,2531 C 7829,2426 8061,2344 8298,2287 L 8367,2579 8437,2871 Z"/><path d="M 7857,3075 C 7475,3253 7119,3508 6814,3814 L 6601,3601 6389,3389 C 6745,3034 7159,2738 7604,2531 L 7730,2803 7857,3075 Z"/><path d="M 6814,3814 C 6508,4119 6253,4475 6075,4857 L 5803,4730 5531,4604 C 5738,4159 6034,3745 6389,3389 L 6601,3601 6814,3814 Z"/><path d="M 6075,4857 C 5987,5045 5918,5239 5871,5437 L 5579,5367 5287,5298 C 5344,5061 5426,4829 5531,4604 L 5803,4730 6075,4857 Z"/><path d="M 5871,5437 C 5825,5631 5800,5828 5800,6025 L 5500,6025 5200,6025 C 5200,5781 5230,5538 5287,5298 L 5579,5367 5871,5437 Z"/><path d="M 5800,6025 L 5800,13475 5500,13475 5200,13475 5200,6025 5500,6025 5800,6025 Z"/><path d="M 5800,13475 C 5800,13672 5825,13869 5871,14063 L 5579,14132 5287,14202 C 5230,13962 5200,13719 5200,13475 L 5500,13475 5800,13475 Z"/><path d="M 5871,14063 C 5918,14260 5987,14454 6075,14642 L 5803,14769 5531,14896 C 5426,14671 5344,14438 5287,14202 L 5579,14132 5871,14063 Z"/><path d="M 6075,14642 C 6253,15024 6508,15381 6814,15686 L 6601,15898 6389,16110 C 6034,15755 5738,15340 5531,14896 L 5803,14769 6075,14642 Z"/><path d="M 6814,15686 C 7119,15992 7475,16247 7857,16425 L 7730,16697 7604,16969 C 7159,16762 6745,16466 6389,16110 L 6601,15898 6814,15686 Z"/><path d="M 7857,16425 C 8045,16513 8239,16582 8437,16629 L 8367,16921 8298,17213 C 8061,17156 7829,17074 7604,16969 L 7730,16697 7857,16425 Z"/><path d="M 8437,16629 C 8631,16675 8828,16700 9025,16700 L 9025,17000 9025,17300 C 8781,17300 8538,17270 8298,17213 L 8367,16921 8437,16629 Z"/><path d="M 9025,16700 L 16475,16700 16475,17000 16475,17300 9025,17300 9025,17000 9025,16700 Z"/><path d="M 16475,16700 C 16672,16700 16869,16675 17063,16629 L 17132,16921 17202,17213 C 16962,17270 16719,17300 16475,17300 L 16475,17000 16475,16700 Z"/><path d="M 17063,16629 C 17260,16582 17454,16513 17642,16425 L 17769,16697 17896,16969 C 17671,17074 17438,17156 17202,17213 L 17132,16921 17063,16629 Z"/><path d="M 17642,16425 C 18024,16247 18380,15992 18686,15686 L 18898,15898 19110,16110 C 18755,16466 18340,16762 17896,16969 L 17769,16697 17642,16425 Z"/><path d="M 18686,15686 C 18992,15380 19247,15024 19425,14642 L 19697,14769 19969,14896 C 19762,15340 19466,15755 19110,16110 L 18898,15898 18686,15686 Z"/><path d="M 19425,14642 C 19513,14454 19582,14260 19629,14063 L 19921,14132 20213,14202 C 20156,14438 20074,14671 19969,14896 L 19697,14769 19425,14642 Z"/><path d="M 19629,14063 C 19675,13869 19700,13672 19700,13475 L 20000,13475 20300,13475 C 20300,13719 20270,13962 20213,14202 L 19921,14132 19629,14063 Z"/><path d="M 19700,13475 L 19700,6025 20000,6025 20300,6025 20300,13475 20000,13475 19700,13475 Z"/><path d="M 19700,6025 C 19700,5828 19675,5631 19629,5437 L 19921,5367 20213,5298 C 20270,5538 20300,5781 20300,6025 L 20000,6025 19700,6025 Z"/><path d="M 19629,5437 C 19582,5239 19513,5045 19425,4857 L 19697,4730 19969,4604 C 20074,4829 20156,5061 20213,5298 L 19921,5367 19629,5437 Z"/><path d="M 19425,4857 C 19247,4475 18992,4119 18686,3814 L 18898,3601 19110,3389 C 19466,3745 19762,4159 19969,4604 L 19697,4730 19425,4857 Z"/><path d="M 18686,3814 C 18381,3508 18024,3253 17642,3075 L 17769,2803 17896,2531 C 18340,2738 18755,3034 19110,3389 L 18898,3601 18686,3814 Z"/><path d="M 17642,3075 C 17454,2987 17260,2918 17063,2871 L 17132,2579 17202,2287 C 17438,2344 17671,2426 17896,2531 L 17769,2803 17642,3075 Z"/><path d="M 17063,2871 C 16869,2825 16672,2800 16475,2800 L 16475,2500 16475,2200 C 16719,2200 16962,2230 17202,2287 L 17132,2579 17063,2871 Z"/><path d="M 16475,2800 L 9025,2800 9025,2500 9025,2200 16475,2200 16475,2500 16475,2800 Z"/><path d="M 5500,2500 L 5500,2500 5500,2500 5500,2500 5500,2500 5500,2500 5500,2500 Z"/><path d="M 20001,17001 L 20001,17001 20001,17001 20001,17001 20001,17001 20001,17001 20001,17001 Z"/></g><g/></g></g><g><desc>Drawing</desc><g><g><defs><clipPath id="clip3"><path d="M 12300,6800 L 12300,9300 16300,9300 16800,12300 12300,12300 12300,14800 7800,14800 8800,4300 16800,4300 17300,6800 12300,6800 Z"/></clipPath></defs><g style="clip-path:URL(#clip3)"><g style="stroke:none;fill:rgb(255,181,21)"><path d="M 3258,6908 L 14941,191 14941,191 3258,6908 Z"/><path d="M 3258,6908 L 14941,191 21842,12193 10160,18910 Z"/></g></g></g><g style="stroke:none;fill:rgb(255,181,21)"><path d="M 12000,6800 C 12000,6634 12134,6500 12300,6500 L 12300,6800 12000,6800 Z"/><path d="M 12600,6800 L 12600,9300 12300,9300 12000,9300 12000,6800 12300,6800 12600,6800 Z"/><path d="M 12300,9600 C 12134,9600 12000,9466 12000,9300 L 12300,9300 12300,9600 Z"/><path d="M 12300,9000 L 16300,9000 16300,9300 16300,9600 12300,9600 12300,9300 12300,9000 Z"/><path d="M 16300,9000 C 16448,9000 16572,9109 16596,9251 L 16300,9300 16300,9000 Z"/><path d="M 16596,9251 L 17096,12251 16800,12300 16504,12349 16004,9349 16300,9300 16596,9251 Z"/><path d="M 17096,12251 C 17099,12267 17100,12283 17100,12300 17100,12466 16966,12600 16800,12600 L 16800,12300 17096,12251 Z"/><path d="M 16800,12600 L 12300,12600 12300,12300 12300,12000 16800,12000 16800,12300 16800,12600 Z"/><path d="M 12000,12300 C 12000,12134 12134,12000 12300,12000 L 12300,12300 12000,12300 Z"/><path d="M 12600,12300 L 12600,14800 12300,14800 12000,14800 12000,12300 12300,12300 12600,12300 Z"/><path d="M 12600,14800 C 12600,14966 12466,15100 12300,15100 L 12300,14800 12600,14800 Z"/><path d="M 12300,15100 L 7800,15100 7800,14800 7800,14500 12300,14500 12300,14800 12300,15100 Z"/><path d="M 7800,15100 C 7634,15100 7500,14966 7500,14800 7500,14790 7500,14781 7501,14772 L 7800,14800 7800,15100 Z"/><path d="M 7501,14772 L 8501,4272 8800,4300 9099,4328 8099,14828 7800,14800 7501,14772 Z"/><path d="M 8501,4272 C 8516,4120 8644,4000 8800,4000 L 8800,4300 8501,4272 Z"/><path d="M 8800,4000 L 16800,4000 16800,4300 16800,4600 8800,4600 8800,4300 8800,4000 Z"/><path d="M 16800,4000 C 16945,4000 17066,4105 17094,4241 L 16800,4300 16800,4000 Z"/><path d="M 17094,4241 L 17594,6741 17300,6800 17006,6859 16506,4359 16800,4300 17094,4241 Z"/><path d="M 17594,6741 C 17598,6761 17600,6779 17600,6800 17600,6966 17466,7100 17300,7100 L 17300,6800 17594,6741 Z"/><path d="M 17300,7100 L 12300,7100 12300,6800 12300,6500 17300,6500 17300,6800 17300,7100 Z"/></g><g><defs><clipPath id="clip4"><path d="M 13000,7500 L 13000,10000 17000,10000 17500,13000 13000,13000 13000,15500 8500,15500 9500,5000 17500,5000 18000,7500 13000,7500 Z"/></clipPath></defs><g style="clip-path:URL(#clip4)"><g style="stroke:none;fill:rgb(255,211,32)"><path d="M 3958,7608 L 15641,891 15641,891 3958,7608 Z"/><path d="M 3958,7608 L 15641,891 15688,974 4006,7691 Z"/><path d="M 4006,7691 L 15688,974 15736,1056 4054,7774 Z"/></g><g style="stroke:none;fill:rgb(255,210,32)"><path d="M 4054,7774 L 15736,1056 15784,1139 4101,7857 Z"/></g><g style="stroke:none;fill:rgb(255,209,32)"><path d="M 4101,7857 L 15784,1139 15831,1222 4149,7939 Z"/></g><g style="stroke:none;fill:rgb(255,208,32)"><path d="M 4149,7939 L 15831,1222 15879,1305 4197,8023 Z"/></g><g style="stroke:none;fill:rgb(255,207,32)"><path d="M 4197,8023 L 15879,1305 15926,1387 4244,8105 Z"/></g><g style="stroke:none;fill:rgb(255,206,32)"><path d="M 4244,8105 L 15926,1387 15974,1470 4292,8188 Z"/></g><g style="stroke:none;fill:rgb(255,205,32)"><path d="M 4292,8188 L 15974,1470 16021,1552 4339,8270 Z"/></g><g style="stroke:none;fill:rgb(255,204,32)"><path d="M 4339,8270 L 16021,1552 16069,1635 4387,8353 Z"/></g><g style="stroke:none;fill:rgb(255,203,31)"><path d="M 4387,8353 L 16069,1635 16116,1718 4434,8435 Z"/></g><g style="stroke:none;fill:rgb(255,202,31)"><path d="M 4434,8435 L 16116,1718 16164,1801 4482,8518 Z"/></g><g style="stroke:none;fill:rgb(255,201,31)"><path d="M 4482,8518 L 16164,1801 16211,1883 4529,8601 Z"/></g><g style="stroke:none;fill:rgb(255,200,31)"><path d="M 4529,8601 L 16211,1883 16259,1966 4577,8684 Z"/></g><g style="stroke:none;fill:rgb(255,199,31)"><path d="M 4577,8684 L 16259,1966 16307,2049 4624,8766 Z"/></g><g style="stroke:none;fill:rgb(255,198,31)"><path d="M 4624,8766 L 16307,2049 16354,2132 4672,8850 Z"/></g><g style="stroke:none;fill:rgb(255,197,31)"><path d="M 4672,8850 L 16354,2132 16402,2214 4720,8932 Z"/></g><g style="stroke:none;fill:rgb(255,196,31)"><path d="M 4720,8932 L 16402,2214 16450,2298 4767,9015 Z"/></g><g style="stroke:none;fill:rgb(255,195,30)"><path d="M 4767,9015 L 16450,2298 16497,2380 4815,9097 Z"/></g><g style="stroke:none;fill:rgb(255,194,30)"><path d="M 4815,9097 L 16497,2380 16545,2463 4863,9181 Z"/></g><g style="stroke:none;fill:rgb(255,193,30)"><path d="M 4863,9181 L 16545,2463 16592,2545 4910,9263 Z"/></g><g style="stroke:none;fill:rgb(255,192,30)"><path d="M 4910,9263 L 16592,2545 16640,2629 4958,9346 Z"/></g><g style="stroke:none;fill:rgb(255,191,30)"><path d="M 4958,9346 L 16640,2629 16687,2711 5005,9429 Z"/></g><g style="stroke:none;fill:rgb(255,190,30)"><path d="M 5005,9429 L 16687,2711 16735,2794 5053,9512 Z"/></g><g style="stroke:none;fill:rgb(255,189,30)"><path d="M 5053,9512 L 16735,2794 16783,2877 5100,9594 Z"/></g><g style="stroke:none;fill:rgb(255,188,30)"><path d="M 5100,9594 L 16783,2877 16831,2960 5148,9677 Z"/></g><g style="stroke:none;fill:rgb(255,187,29)"><path d="M 5148,9677 L 16831,2960 16878,3042 5196,9760 Z"/></g><g style="stroke:none;fill:rgb(255,186,29)"><path d="M 5196,9760 L 16878,3042 16926,3125 5243,9843 Z"/></g><g style="stroke:none;fill:rgb(255,185,29)"><path d="M 5243,9843 L 16926,3125 16973,3208 5291,9925 Z"/></g><g style="stroke:none;fill:rgb(255,184,29)"><path d="M 5291,9925 L 16973,3208 17021,3291 5339,10009 Z"/></g><g style="stroke:none;fill:rgb(255,183,29)"><path d="M 5339,10009 L 17021,3291 17068,3373 5386,10091 Z"/></g><g style="stroke:none;fill:rgb(255,182,29)"><path d="M 5386,10091 L 17068,3373 17116,3456 5433,10173 Z"/></g><g style="stroke:none;fill:rgb(255,181,29)"><path d="M 5433,10173 L 17116,3456 17163,3539 5481,10257 Z"/></g><g style="stroke:none;fill:rgb(255,180,29)"><path d="M 5481,10257 L 17163,3539 17211,3621 5529,10339 Z"/></g><g style="stroke:none;fill:rgb(255,179,28)"><path d="M 5529,10339 L 17211,3621 17259,3704 5576,10422 Z"/></g><g style="stroke:none;fill:rgb(255,178,28)"><path d="M 5576,10422 L 17259,3704 17306,3787 5624,10504 Z"/></g><g style="stroke:none;fill:rgb(255,177,28)"><path d="M 5624,10504 L 17306,3787 17354,3870 5672,10588 Z"/></g><g style="stroke:none;fill:rgb(255,176,28)"><path d="M 5672,10588 L 17354,3870 17401,3952 5719,10670 Z"/></g><g style="stroke:none;fill:rgb(255,175,28)"><path d="M 5719,10670 L 17401,3952 17449,4036 5767,10753 Z"/></g><g style="stroke:none;fill:rgb(255,174,28)"><path d="M 5767,10753 L 17449,4036 17496,4118 5814,10836 Z"/></g><g style="stroke:none;fill:rgb(255,173,28)"><path d="M 5814,10836 L 17496,4118 17544,4201 5862,10919 Z"/></g><g style="stroke:none;fill:rgb(255,172,28)"><path d="M 5862,10919 L 17544,4201 17592,4284 5909,11001 Z"/></g><g style="stroke:none;fill:rgb(255,171,27)"><path d="M 5909,11001 L 17592,4284 17640,4367 5957,11084 Z"/></g><g style="stroke:none;fill:rgb(255,170,27)"><path d="M 5957,11084 L 17640,4367 17687,4449 6005,11167 Z"/></g><g style="stroke:none;fill:rgb(255,169,27)"><path d="M 6005,11167 L 17687,4449 17735,4532 6052,11250 Z"/></g><g style="stroke:none;fill:rgb(255,168,27)"><path d="M 6052,11250 L 17735,4532 17782,4615 6100,11332 Z"/></g><g style="stroke:none;fill:rgb(255,167,27)"><path d="M 6100,11332 L 17782,4615 17830,4698 6148,11416 Z"/></g><g style="stroke:none;fill:rgb(255,166,27)"><path d="M 6148,11416 L 17830,4698 17877,4780 6195,11498 Z"/></g><g style="stroke:none;fill:rgb(255,165,27)"><path d="M 6195,11498 L 17877,4780 17925,4864 6243,11581 Z"/></g><g style="stroke:none;fill:rgb(255,164,27)"><path d="M 6243,11581 L 17925,4864 17973,4946 6290,11663 Z"/></g><g style="stroke:none;fill:rgb(255,163,26)"><path d="M 6290,11663 L 17973,4946 18020,5029 6338,11747 Z"/></g><g style="stroke:none;fill:rgb(255,162,26)"><path d="M 6338,11747 L 18020,5029 18068,5111 6385,11829 Z"/></g><g style="stroke:none;fill:rgb(255,161,26)"><path d="M 6385,11829 L 18068,5111 18116,5195 6433,11912 Z"/></g><g style="stroke:none;fill:rgb(255,160,26)"><path d="M 6433,11912 L 18116,5195 18163,5277 6481,11995 Z"/></g><g style="stroke:none;fill:rgb(255,159,26)"><path d="M 6481,11995 L 18163,5277 18211,5360 6529,12078 Z"/></g><g style="stroke:none;fill:rgb(255,158,26)"><path d="M 6529,12078 L 18211,5360 18258,5443 6576,12160 Z"/></g><g style="stroke:none;fill:rgb(255,157,26)"><path d="M 6576,12160 L 18258,5443 18306,5526 6624,12243 Z"/></g><g style="stroke:none;fill:rgb(255,156,26)"><path d="M 6624,12243 L 18306,5526 18353,5608 6671,12326 Z"/></g><g style="stroke:none;fill:rgb(255,155,25)"><path d="M 6671,12326 L 18353,5608 18401,5691 6719,12409 Z"/></g><g style="stroke:none;fill:rgb(255,154,25)"><path d="M 6719,12409 L 18401,5691 18449,5774 6766,12491 Z"/></g><g style="stroke:none;fill:rgb(255,153,25)"><path d="M 6766,12491 L 18449,5774 18496,5856 6814,12574 Z"/></g><g style="stroke:none;fill:rgb(255,152,25)"><path d="M 6814,12574 L 18496,5856 18544,5939 6862,12657 Z"/></g><g style="stroke:none;fill:rgb(255,151,25)"><path d="M 6862,12657 L 18544,5939 18591,6022 6909,12739 Z"/></g><g style="stroke:none;fill:rgb(255,150,25)"><path d="M 6909,12739 L 18591,6022 18639,6105 6957,12823 Z"/></g><g style="stroke:none;fill:rgb(255,149,25)"><path d="M 6957,12823 L 18639,6105 18686,6187 7004,12905 Z"/></g><g style="stroke:none;fill:rgb(255,148,25)"><path d="M 7004,12905 L 18686,6187 18734,6270 7052,12988 Z"/></g><g style="stroke:none;fill:rgb(255,147,24)"><path d="M 7052,12988 L 18734,6270 18782,6353 7099,13070 Z"/></g><g style="stroke:none;fill:rgb(255,146,24)"><path d="M 7099,13070 L 18782,6353 18829,6436 7147,13154 Z"/></g><g style="stroke:none;fill:rgb(255,145,24)"><path d="M 7147,13154 L 18829,6436 18877,6518 7194,13236 Z"/></g><g style="stroke:none;fill:rgb(255,144,24)"><path d="M 7194,13236 L 18877,6518 18925,6602 7242,13319 Z"/></g><g style="stroke:none;fill:rgb(255,143,24)"><path d="M 7242,13319 L 18925,6602 18972,6684 7290,13402 Z"/></g><g style="stroke:none;fill:rgb(255,142,24)"><path d="M 7290,13402 L 18972,6684 19020,6767 7338,13485 Z"/></g><g style="stroke:none;fill:rgb(255,141,24)"><path d="M 7338,13485 L 19020,6767 19067,6850 7385,13567 Z"/></g><g style="stroke:none;fill:rgb(255,140,24)"><path d="M 7385,13567 L 19067,6850 19115,6933 7433,13650 Z"/></g><g style="stroke:none;fill:rgb(255,139,23)"><path d="M 7433,13650 L 19115,6933 19162,7015 7480,13733 Z"/></g><g style="stroke:none;fill:rgb(255,138,23)"><path d="M 7480,13733 L 19162,7015 19210,7098 7528,13816 Z"/></g><g style="stroke:none;fill:rgb(255,137,23)"><path d="M 7528,13816 L 19210,7098 19258,7181 7575,13898 Z"/></g><g style="stroke:none;fill:rgb(255,136,23)"><path d="M 7575,13898 L 19258,7181 19306,7264 7623,13982 Z"/></g><g style="stroke:none;fill:rgb(255,135,23)"><path d="M 7623,13982 L 19306,7264 19353,7346 7671,14064 Z"/></g><g style="stroke:none;fill:rgb(255,134,23)"><path d="M 7671,14064 L 19353,7346 19401,7430 7718,14147 Z"/></g><g style="stroke:none;fill:rgb(255,133,23)"><path d="M 7718,14147 L 19401,7430 19448,7512 7766,14230 Z"/></g><g style="stroke:none;fill:rgb(255,132,23)"><path d="M 7766,14230 L 19448,7512 19496,7595 7814,14313 Z"/></g><g style="stroke:none;fill:rgb(255,131,23)"><path d="M 7814,14313 L 19496,7595 19543,7677 7861,14395 Z"/></g><g style="stroke:none;fill:rgb(255,130,22)"><path d="M 7861,14395 L 19543,7677 19591,7761 7909,14478 Z"/></g><g style="stroke:none;fill:rgb(255,129,22)"><path d="M 7909,14478 L 19591,7761 19638,7843 7956,14561 Z"/></g><g style="stroke:none;fill:rgb(255,128,22)"><path d="M 7956,14561 L 19638,7843 19686,7926 8004,14644 Z"/></g><g style="stroke:none;fill:rgb(255,127,22)"><path d="M 8004,14644 L 19686,7926 19734,8009 8051,14726 Z"/></g><g style="stroke:none;fill:rgb(255,126,22)"><path d="M 8051,14726 L 19734,8009 19781,8091 8099,14809 Z"/></g><g style="stroke:none;fill:rgb(255,125,22)"><path d="M 8099,14809 L 19781,8091 19829,8174 8147,14892 Z"/></g><g style="stroke:none;fill:rgb(255,124,22)"><path d="M 8147,14892 L 19829,8174 19876,8257 8194,14974 Z"/></g><g style="stroke:none;fill:rgb(255,123,22)"><path d="M 8194,14974 L 19876,8257 19924,8340 8242,15057 Z"/></g><g style="stroke:none;fill:rgb(255,122,21)"><path d="M 8242,15057 L 19924,8340 19971,8422 8289,15140 Z"/></g><g style="stroke:none;fill:rgb(255,121,21)"><path d="M 8289,15140 L 19971,8422 20019,8505 8337,15223 Z"/></g><g style="stroke:none;fill:rgb(255,120,21)"><path d="M 8337,15223 L 20019,8505 20067,8588 8384,15305 Z"/></g><g style="stroke:none;fill:rgb(255,119,21)"><path d="M 8384,15305 L 20067,8588 20115,8671 8432,15389 Z"/></g><g style="stroke:none;fill:rgb(255,118,21)"><path d="M 8432,15389 L 20115,8671 20162,8753 8480,15471 Z"/></g><g style="stroke:none;fill:rgb(255,117,21)"><path d="M 8480,15471 L 20162,8753 20210,8837 8527,15554 Z"/></g><g style="stroke:none;fill:rgb(255,116,21)"><path d="M 8527,15554 L 20210,8837 20257,8919 8575,15636 Z"/></g><g style="stroke:none;fill:rgb(255,115,21)"><path d="M 8575,15636 L 20257,8919 20305,9002 8623,15720 Z"/></g><g style="stroke:none;fill:rgb(255,114,20)"><path d="M 8623,15720 L 20305,9002 20352,9084 8670,15802 Z"/></g><g style="stroke:none;fill:rgb(255,113,20)"><path d="M 8670,15802 L 20352,9084 20400,9168 8718,15885 Z"/></g><g style="stroke:none;fill:rgb(255,112,20)"><path d="M 8718,15885 L 20400,9168 20448,9250 8765,15968 Z"/></g><g style="stroke:none;fill:rgb(255,111,20)"><path d="M 8765,15968 L 20448,9250 20495,9333 8813,16051 Z"/></g><g style="stroke:none;fill:rgb(255,110,20)"><path d="M 8813,16051 L 20495,9333 20543,9416 8860,16133 Z"/></g><g style="stroke:none;fill:rgb(255,109,20)"><path d="M 8860,16133 L 20543,9416 20591,9499 8908,16216 Z"/></g><g style="stroke:none;fill:rgb(255,108,20)"><path d="M 8908,16216 L 20591,9499 20638,9581 8956,16299 Z"/></g><g style="stroke:none;fill:rgb(255,107,20)"><path d="M 8956,16299 L 20638,9581 20686,9664 9004,16382 Z"/></g><g style="stroke:none;fill:rgb(255,106,19)"><path d="M 9004,16382 L 20686,9664 20733,9747 9051,16464 Z"/></g><g style="stroke:none;fill:rgb(255,105,19)"><path d="M 9051,16464 L 20733,9747 20781,9830 9099,16548 Z"/></g><g style="stroke:none;fill:rgb(255,104,19)"><path d="M 9099,16548 L 20781,9830 20828,9912 9146,16630 Z"/></g><g style="stroke:none;fill:rgb(255,103,19)"><path d="M 9146,16630 L 20828,9912 20876,9996 9194,16713 Z"/></g><g style="stroke:none;fill:rgb(255,102,19)"><path d="M 9194,16713 L 20876,9996 20924,10078 9241,16796 Z"/></g><g style="stroke:none;fill:rgb(255,101,19)"><path d="M 9241,16796 L 20924,10078 20971,10161 9289,16879 Z"/></g><g style="stroke:none;fill:rgb(255,100,19)"><path d="M 9289,16879 L 20971,10161 21019,10243 9337,16961 Z"/></g><g style="stroke:none;fill:rgb(255,99,19)"><path d="M 9337,16961 L 21019,10243 21067,10327 9384,17044 Z"/></g><g style="stroke:none;fill:rgb(255,98,18)"><path d="M 9384,17044 L 21067,10327 21114,10409 9432,17127 Z"/></g><g style="stroke:none;fill:rgb(255,97,18)"><path d="M 9432,17127 L 21114,10409 21162,10492 9480,17210 Z"/></g><g style="stroke:none;fill:rgb(255,96,18)"><path d="M 9480,17210 L 21162,10492 21209,10575 9527,17292 Z"/></g><g style="stroke:none;fill:rgb(255,95,18)"><path d="M 9527,17292 L 21209,10575 21257,10657 9574,17375 Z"/></g><g style="stroke:none;fill:rgb(255,94,18)"><path d="M 9574,17375 L 21257,10657 21304,10740 9622,17458 Z"/></g><g style="stroke:none;fill:rgb(255,93,18)"><path d="M 9622,17458 L 21304,10740 21352,10823 9669,17540 Z"/></g><g style="stroke:none;fill:rgb(255,92,18)"><path d="M 9669,17540 L 21352,10823 21400,10906 9717,17623 Z"/></g><g style="stroke:none;fill:rgb(255,91,18)"><path d="M 9717,17623 L 21400,10906 21447,10988 9765,17706 Z"/></g><g style="stroke:none;fill:rgb(255,90,17)"><path d="M 9765,17706 L 21447,10988 21495,11071 9813,17789 Z"/></g><g style="stroke:none;fill:rgb(255,89,17)"><path d="M 9813,17789 L 21495,11071 21542,11154 9860,17871 Z"/></g><g style="stroke:none;fill:rgb(255,88,17)"><path d="M 9860,17871 L 21542,11154 21590,11237 9908,17955 Z"/></g><g style="stroke:none;fill:rgb(255,87,17)"><path d="M 9908,17955 L 21590,11237 21637,11319 9955,18037 Z"/></g><g style="stroke:none;fill:rgb(255,86,17)"><path d="M 9955,18037 L 21637,11319 21685,11403 10003,18120 Z"/></g><g style="stroke:none;fill:rgb(255,85,17)"><path d="M 10003,18120 L 21685,11403 21733,11485 10050,18202 Z"/></g><g style="stroke:none;fill:rgb(255,84,17)"><path d="M 10050,18202 L 21733,11485 21780,11568 10098,18286 Z"/></g><g style="stroke:none;fill:rgb(255,83,17)"><path d="M 10098,18286 L 21780,11568 21828,11650 10146,18368 Z"/></g><g style="stroke:none;fill:rgb(255,82,16)"><path d="M 10146,18368 L 21828,11650 21876,11734 10193,18451 Z"/></g><g style="stroke:none;fill:rgb(255,81,16)"><path d="M 10193,18451 L 21876,11734 21923,11816 10241,18534 Z"/></g><g style="stroke:none;fill:rgb(255,80,16)"><path d="M 10241,18534 L 21923,11816 21971,11899 10289,18617 Z"/></g><g style="stroke:none;fill:rgb(255,79,16)"><path d="M 10289,18617 L 21971,11899 22018,11982 10336,18699 Z"/></g><g style="stroke:none;fill:rgb(255,78,16)"><path d="M 10336,18699 L 22018,11982 22066,12065 10384,18782 Z"/></g><g style="stroke:none;fill:rgb(255,77,16)"><path d="M 10384,18782 L 22066,12065 22113,12147 10431,18865 Z"/></g><g style="stroke:none;fill:rgb(255,76,16)"><path d="M 10431,18865 L 22113,12147 22161,12230 10479,18948 Z"/></g><g style="stroke:none;fill:rgb(255,75,16)"><path d="M 10479,18948 L 22161,12230 22209,12313 10526,19030 Z"/></g><g style="stroke:none;fill:rgb(255,74,15)"><path d="M 10526,19030 L 22209,12313 22257,12396 10574,19114 Z"/></g><g style="stroke:none;fill:rgb(255,73,15)"><path d="M 10574,19114 L 22257,12396 22304,12478 10622,19196 Z"/></g><g style="stroke:none;fill:rgb(255,72,15)"><path d="M 10622,19196 L 22304,12478 22352,12562 10669,19279 Z"/></g><g style="stroke:none;fill:rgb(255,71,15)"><path d="M 10669,19279 L 22352,12562 22399,12644 10717,19362 Z"/></g><g style="stroke:none;fill:rgb(255,70,15)"><path d="M 10717,19362 L 22399,12644 22447,12727 10765,19445 Z"/></g><g style="stroke:none;fill:rgb(255,69,15)"><path d="M 10765,19445 L 22447,12727 22494,12809 10812,19527 Z"/></g><g style="stroke:none;fill:rgb(255,68,15)"><path d="M 10812,19527 L 22494,12809 22542,12893 10860,19610 Z"/></g></g></g><g style="stroke:none;fill:rgb(255,211,32)"><path d="M 12700,7500 C 12700,7334 12834,7200 13000,7200 L 13000,7500 12700,7500 Z"/><path d="M 13300,7500 L 13300,10000 13000,10000 12700,10000 12700,7500 13000,7500 13300,7500 Z"/><path d="M 13000,10300 C 12834,10300 12700,10166 12700,10000 L 13000,10000 13000,10300 Z"/><path d="M 13000,9700 L 17000,9700 17000,10000 17000,10300 13000,10300 13000,10000 13000,9700 Z"/><path d="M 17000,9700 C 17148,9700 17272,9809 17296,9951 L 17000,10000 17000,9700 Z"/><path d="M 17296,9951 L 17796,12951 17500,13000 17204,13049 16704,10049 17000,10000 17296,9951 Z"/><path d="M 17796,12951 C 17799,12967 17800,12983 17800,13000 17800,13166 17666,13300 17500,13300 L 17500,13000 17796,12951 Z"/><path d="M 17500,13300 L 13000,13300 13000,13000 13000,12700 17500,12700 17500,13000 17500,13300 Z"/><path d="M 12700,13000 C 12700,12834 12834,12700 13000,12700 L 13000,13000 12700,13000 Z"/><path d="M 13300,13000 L 13300,15500 13000,15500 12700,15500 12700,13000 13000,13000 13300,13000 Z"/><path d="M 13300,15500 C 13300,15666 13166,15800 13000,15800 L 13000,15500 13300,15500 Z"/><path d="M 13000,15800 L 8500,15800 8500,15500 8500,15200 13000,15200 13000,15500 13000,15800 Z"/><path d="M 8500,15800 C 8334,15800 8200,15666 8200,15500 8200,15490 8200,15481 8201,15472 L 8500,15500 8500,15800 Z"/><path d="M 8201,15472 L 9201,4972 9500,5000 9799,5028 8799,15528 8500,15500 8201,15472 Z"/><path d="M 9201,4972 C 9216,4820 9344,4700 9500,4700 L 9500,5000 9201,4972 Z"/><path d="M 9500,4700 L 17500,4700 17500,5000 17500,5300 9500,5300 9500,5000 9500,4700 Z"/><path d="M 17500,4700 C 17645,4700 17766,4805 17794,4941 L 17500,5000 17500,4700 Z"/><path d="M 17794,4941 L 18294,7441 18000,7500 17706,7559 17206,5059 17500,5000 17794,4941 Z"/><path d="M 18294,7441 C 18298,7461 18300,7479 18300,7500 18300,7666 18166,7800 18000,7800 L 18000,7500 18294,7441 Z"/><path d="M 18000,7800 L 13000,7800 13000,7500 13000,7200 18000,7200 18000,7500 18000,7800 Z"/></g><g/></g></g><g><desc>Drawing</desc><g><g/></g></g></g></svg>